<svg width="47" height="66" viewBox="0 0 47 66" fill="none" xmlns="http://www.w3.org/2000/svg">
<path d="M12.1328 12.7736C12.2344 12.8751 12.355 12.9557 12.4877 13.0107C12.6204 13.0657 12.7626 13.094 12.9062 13.094C13.0499 13.094 13.1921 13.0657 13.3248 13.0107C13.4575 12.9557 13.5781 12.8751 13.6797 12.7736L19.4265 7.02633C19.7866 6.66624 20.0723 6.23875 20.2672 5.76827C20.4621 5.29778 20.5624 4.79352 20.5624 4.28426C20.5624 3.77501 20.4621 3.27074 20.2672 2.80024C20.0724 2.32975 19.7867 1.90224 19.4266 1.54213C19.0665 1.18203 18.6391 0.896371 18.1686 0.701476C17.6981 0.50658 17.1938 0.406263 16.6846 0.40625C16.1753 0.406237 15.671 0.50653 15.2005 0.701402C14.7301 0.896274 14.3025 1.18191 13.9424 1.542L12.9062 2.57819L11.8701 1.542C11.1413 0.821668 10.1572 0.419006 9.13254 0.421975C8.1079 0.424943 7.12608 0.833301 6.40156 1.55784C5.67704 2.28238 5.26871 3.26421 5.26576 4.28885C5.26282 5.31348 5.66551 6.29764 6.38585 7.02633L12.1328 12.7736ZM9.12802 2.59377C9.35011 2.59318 9.57011 2.63664 9.77529 2.72164C9.98047 2.80664 10.1668 2.93149 10.3234 3.08897L12.1328 4.89844C12.2344 5.00001 12.355 5.08058 12.4877 5.13555C12.6204 5.19052 12.7626 5.21881 12.9062 5.21881C13.0499 5.21881 13.1921 5.19052 13.3248 5.13555C13.4575 5.08058 13.5781 5.00001 13.6797 4.89844L15.4891 3.08897C15.8061 2.77193 16.2361 2.5938 16.6844 2.59378C17.1328 2.59375 17.5628 2.77183 17.8798 3.08883C18.1968 3.40584 18.375 3.8358 18.375 4.28414C18.375 4.73247 18.1969 5.16246 17.8799 5.4795L12.9062 10.4533L7.93255 5.4795C7.69612 5.24308 7.53511 4.94186 7.46988 4.61393C7.40465 4.28601 7.43814 3.9461 7.56611 3.6372C7.69407 3.32831 7.91077 3.0643 8.18879 2.87857C8.46681 2.69284 8.79367 2.59373 9.12802 2.59377Z" fill="#FFAF00"/>
<path d="M0.902426 41.5062C0.927775 42.1011 1.07073 42.6851 1.32304 43.2244C1.57535 43.7637 1.93201 44.2477 2.37243 44.6484L9.99655 51.5347C10.93 52.3798 12.0263 53.0253 13.2182 53.4316L19.2937 55.5106L30.491 65.624C30.6919 65.8055 30.9532 65.9061 31.224 65.9061C31.2425 65.9061 31.2611 65.9061 31.2797 65.9046C31.5694 65.8899 31.8414 65.7607 32.0359 65.5455L45.9649 50.1235C46.0612 50.0169 46.1356 49.8923 46.1837 49.757C46.2319 49.6217 46.2529 49.4782 46.2456 49.3347C46.2383 49.1913 46.2028 49.0506 46.1412 48.9209C46.0795 48.7911 45.9929 48.6748 45.8863 48.5785L34.6546 38.434L31.993 33.7246C31.5016 32.8546 30.8729 32.0698 30.1311 31.4004L21.0616 23.2087L21.2488 21.9415C21.4307 20.7055 21.8243 19.5102 22.4122 18.408C22.6744 17.915 22.8359 17.3748 22.8872 16.8189C22.9386 16.2629 22.8788 15.7023 22.7114 15.1696C22.544 14.637 22.2723 14.143 21.9121 13.7163C21.5519 13.2897 21.1104 12.939 20.6134 12.6847C20.1163 12.4304 19.5736 12.2775 19.0169 12.2349C18.4602 12.1923 17.9006 12.261 17.3707 12.4368C16.8407 12.6126 16.3511 12.8921 15.9302 13.259C15.5093 13.6259 15.1657 14.0728 14.9192 14.5738L13.8694 16.7125L11.6388 14.6979C10.7861 13.935 9.66969 13.5346 8.52656 13.5817C7.38344 13.6288 6.30371 14.1197 5.51668 14.9501C5.12261 15.3705 4.81703 15.8659 4.61811 16.4067C4.41918 16.9476 4.33096 17.5229 4.35868 18.0985C4.38403 18.6933 4.52698 19.2773 4.77926 19.8166C5.03154 20.3559 5.38817 20.8399 5.82854 21.2407L10.2719 25.2542C9.36485 25.5401 8.57797 26.1183 8.03404 26.8984C7.4901 27.6786 7.21971 28.6169 7.26504 29.5668C7.28113 29.9466 7.34544 30.3228 7.45645 30.6863C6.45447 30.8135 5.52803 31.2856 4.83624 32.0215C4.44219 32.442 4.13665 32.9374 3.93775 33.4782C3.73885 34.0191 3.65064 34.5944 3.67836 35.17C3.70743 35.8484 3.88917 36.5115 4.21006 37.1099C3.23271 37.3422 2.36725 37.9087 1.76329 38.7115C1.15933 39.5142 0.854826 40.5028 0.902426 41.5062ZM16.8829 15.5377C17.0015 15.2974 17.1666 15.083 17.3688 14.9071C17.5709 14.7312 17.806 14.5972 18.0604 14.513C18.3148 14.4287 18.5834 14.3959 18.8505 14.4164C19.1177 14.4369 19.3782 14.5103 19.6167 14.6324C19.8553 14.7544 20.0672 14.9227 20.2401 15.1274C20.413 15.3321 20.5436 15.5692 20.6241 15.8248C20.7045 16.0804 20.7334 16.3494 20.709 16.6163C20.6846 16.8831 20.6073 17.1424 20.4818 17.3792C19.8036 18.6503 19.3406 20.0249 19.1116 21.4472L16.6865 19.257L15.5577 18.2375L16.8829 15.5377ZM3.65567 39.8545C4.04918 39.4394 4.58901 39.1941 5.16051 39.1706C5.73201 39.1471 6.29015 39.3473 6.71639 39.7287L10.7747 43.3943C10.881 43.4923 11.0057 43.5683 11.1415 43.6178C11.2774 43.6674 11.4217 43.6895 11.5661 43.6829C11.7106 43.6763 11.8523 43.6411 11.983 43.5794C12.1138 43.5177 12.231 43.4307 12.328 43.3234C12.4249 43.2161 12.4995 43.0907 12.5477 42.9543C12.5958 42.818 12.6164 42.6734 12.6083 42.5291C12.6002 42.3847 12.5636 42.2434 12.5005 42.1133C12.4375 41.9832 12.3492 41.8668 12.2409 41.771L8.18256 38.1055L8.18079 38.1037L6.61413 36.6887C6.38894 36.4833 6.20667 36.2354 6.07784 35.9592C5.94901 35.6831 5.87617 35.3841 5.86354 35.0796C5.84879 34.7946 5.89142 34.5095 5.98891 34.2413C6.08639 33.9731 6.23675 33.7272 6.43106 33.5181C6.82414 33.1038 7.36307 32.8586 7.93373 32.8347C8.50439 32.8108 9.06196 33.0099 9.48836 33.3899L9.49 33.3913L12.7379 36.3248C12.8445 36.4212 12.969 36.4956 13.1043 36.5438C13.2397 36.592 13.3832 36.6131 13.5267 36.6059C13.6702 36.5986 13.8108 36.5632 13.9406 36.5016C14.0704 36.44 14.1868 36.3534 14.2832 36.2468C14.3795 36.1403 14.4539 36.0157 14.5021 35.8804C14.5503 35.7451 14.5714 35.6016 14.5642 35.4581C14.5569 35.3146 14.5215 35.1739 14.4599 35.0441C14.3983 34.9143 14.3117 34.7979 14.2052 34.7016L10.9582 31.7695L10.9563 31.7677L10.2012 31.0859C9.97603 30.8806 9.79376 30.6327 9.66493 30.3565C9.5361 30.0803 9.46326 29.7814 9.45063 29.4769C9.43583 29.1919 9.47844 28.9068 9.57593 28.6386C9.67342 28.3703 9.8238 28.1244 10.0181 27.9154C10.4113 27.5008 10.9504 27.2555 11.5213 27.2316C12.0922 27.2077 12.6499 27.4071 13.0763 27.7874L13.0789 27.7898L15.5137 29.989C15.6203 30.0853 15.7449 30.1597 15.8802 30.2079C16.0156 30.2561 16.1591 30.2771 16.3026 30.2698C16.4461 30.2625 16.5868 30.2271 16.7166 30.1654C16.8463 30.1038 16.9627 30.0172 17.059 29.9105C17.1553 29.8039 17.2297 29.6794 17.2779 29.544C17.3261 29.4087 17.3471 29.2651 17.3398 29.1216C17.3325 28.9781 17.2971 28.8375 17.2354 28.7077C17.1738 28.5779 17.0872 28.4615 16.9805 28.3652L14.5456 26.1665L12.9218 24.6998L7.29498 19.6175C7.0698 19.4122 6.88753 19.1642 6.7587 18.888C6.62988 18.6118 6.55704 18.3129 6.5444 18.0084C6.52963 17.7233 6.57226 17.4383 6.66978 17.17C6.76729 16.9018 6.91769 16.6559 7.11205 16.4469C7.5056 16.0322 8.04524 15.787 8.6165 15.7636C9.18776 15.7401 9.7457 15.9401 10.172 16.3211L28.6648 33.0239C29.232 33.5358 29.7129 34.136 30.0887 34.8013L32.8368 39.6645C32.8945 39.7668 32.9684 39.8591 33.0555 39.9379L43.6073 49.4686L31.1446 63.2675L20.5928 53.7368C20.4829 53.6375 20.354 53.5615 20.2138 53.5135L13.9264 51.3613C13.015 51.0506 12.1766 50.557 11.4627 49.9107L3.83873 43.0245C3.61355 42.8191 3.43128 42.5712 3.30246 42.295C3.17363 42.0188 3.10079 41.7198 3.08815 41.4153C3.07339 41.1304 3.11602 40.8454 3.21351 40.5773C3.311 40.3092 3.46136 40.0634 3.65567 39.8545Z" fill="#FFAF00"/>
</svg>
