<svg width="22" height="22" viewBox="0 0 22 22" fill="none" xmlns="http://www.w3.org/2000/svg">
<path d="M18.7415 3.50909C16.7123 1.50819 14.0143 0.40625 11.1446 0.40625C8.54846 0.40625 6.04204 1.33194 4.08711 3.01269C3.9387 3.14033 3.9233 3.36237 4.05265 3.50872C4.18209 3.65511 4.40733 3.67025 4.5557 3.54266C6.3808 1.97356 8.72074 1.10938 11.1446 1.10938C16.6755 1.10938 21.1752 5.54628 21.1752 11C21.1752 16.4537 16.6755 20.8906 11.1446 20.8906C5.61367 20.8906 1.11396 16.4537 1.11396 11C1.11396 8.60998 1.99038 6.3027 3.58168 4.50308C3.71113 4.35673 3.69568 4.13469 3.54726 4.00705C3.39894 3.87945 3.17371 3.89459 3.04421 4.04103C1.33967 5.96867 0.400879 8.44011 0.400879 11C0.400879 13.8297 1.51841 16.49 3.54765 18.4909C5.57688 20.4918 8.27488 21.5938 11.1446 21.5938C14.0143 21.5938 16.7123 20.4918 18.7415 18.4909C20.7708 16.49 21.8883 13.8297 21.8883 11C21.8883 8.17034 20.7708 5.51 18.7415 3.50909Z" fill="black"/>
</svg>
